<?xml version="1.0" encoding="UTF-8" standalone="no"?>
<!-- Created with Inkscape (http://www.inkscape.org/) -->

<svg
   xmlns:dc="http://purl.org/dc/elements/1.1/"
   xmlns:cc="http://creativecommons.org/ns#"
   xmlns:rdf="http://www.w3.org/1999/02/22-rdf-syntax-ns#"
   xmlns:svg="http://www.w3.org/2000/svg"
   xmlns="http://www.w3.org/2000/svg"
   xmlns:xlink="http://www.w3.org/1999/xlink"
   xmlns:sodipodi="http://sodipodi.sourceforge.net/DTD/sodipodi-0.dtd"
   xmlns:inkscape="http://www.inkscape.org/namespaces/inkscape"
   width="184.5"
   height="225.89999"
   id="svg4665"
   version="1.1"
   inkscape:version="0.48.4 r9939"
   sodipodi:docname="wharf-logo.svg">
  <defs
     id="defs4667">
    <radialGradient
       inkscape:collect="always"
       xlink:href="#linearGradient3308"
       id="radialGradient4258"
       gradientUnits="userSpaceOnUse"
       gradientTransform="matrix(11.60017,-8.917595e-8,7.23316e-8,9.4090262,-757.86736,-1543.8267)"
       cx="72.080688"
       cy="237.3118"
       fx="72.080688"
       fy="237.3118"
       r="89.823624" />
    <linearGradient
       id="linearGradient3308">
      <stop
         id="stop3310"
         offset="0"
         style="stop-color:#212121;stop-opacity:1;" />
      <stop
         id="stop3312"
         offset="1"
         style="stop-color:#b8b8b8;stop-opacity:1;" />
    </linearGradient>
    <radialGradient
       inkscape:collect="always"
       xlink:href="#linearGradient3605"
       id="radialGradient4260"
       gradientUnits="userSpaceOnUse"
       gradientTransform="translate(3.136538,4.704807)"
       cx="150.5538"
       cy="160.69841"
       fx="150.5538"
       fy="160.69841"
       r="312.59076" />
    <linearGradient
       id="linearGradient3605">
      <stop
         style="stop-color:#ffffff;stop-opacity:1;"
         offset="0"
         id="stop3607" />
      <stop
         style="stop-color:#ffffff;stop-opacity:0;"
         offset="1"
         id="stop3609" />
    </linearGradient>
    <linearGradient
       inkscape:collect="always"
       xlink:href="#linearGradient3160"
       id="linearGradient4262"
       gradientUnits="userSpaceOnUse"
       gradientTransform="matrix(3.4800508,0,0,3.4800508,-164.72229,-124.26474)"
       x1="160.79538"
       y1="229.54926"
       x2="160.79538"
       y2="62.100281" />
    <linearGradient
       id="linearGradient3160">
      <stop
         style="stop-color:#4b4b4b;stop-opacity:1;"
         offset="0"
         id="stop3162" />
      <stop
         style="stop-color:#ffffff;stop-opacity:1;"
         offset="1"
         id="stop3164" />
    </linearGradient>
    <linearGradient
       inkscape:collect="always"
       xlink:href="#linearGradient3571"
       id="linearGradient3636"
       gradientUnits="userSpaceOnUse"
       x1="499.9826"
       y1="373.98297"
       x2="600.9422"
       y2="174.81282" />
    <linearGradient
       id="linearGradient3571">
      <stop
         style="stop-color:#26761e;stop-opacity:1;"
         offset="0"
         id="stop3573" />
      <stop
         style="stop-color:#2cb134;stop-opacity:0.99607843;"
         offset="1"
         id="stop3575" />
    </linearGradient>
    <radialGradient
       inkscape:collect="always"
       xlink:href="#linearGradient3593"
       id="radialGradient3638"
       gradientUnits="userSpaceOnUse"
       gradientTransform="matrix(0.5716748,0.6230185,-0.666331,0.6114179,361.64298,-271.53663)"
       cx="536.92163"
       cy="257.29892"
       fx="536.92163"
       fy="257.29892"
       r="201.37689" />
    <linearGradient
       id="linearGradient3593">
      <stop
         style="stop-color:#ffffff;stop-opacity:1;"
         offset="0"
         id="stop3595" />
      <stop
         style="stop-color:#ffffff;stop-opacity:0;"
         offset="1"
         id="stop3597" />
    </linearGradient>
    <linearGradient
       inkscape:collect="always"
       xlink:href="#linearGradient3571"
       id="linearGradient4769"
       gradientUnits="userSpaceOnUse"
       x1="499.9826"
       y1="373.98297"
       x2="600.9422"
       y2="174.81282" />
    <radialGradient
       inkscape:collect="always"
       xlink:href="#linearGradient3593"
       id="radialGradient4771"
       gradientUnits="userSpaceOnUse"
       gradientTransform="matrix(0.5716748,0.6230185,-0.666331,0.6114179,361.64298,-271.53663)"
       cx="536.92163"
       cy="257.29892"
       fx="536.92163"
       fy="257.29892"
       r="201.37689" />
    <radialGradient
       inkscape:collect="always"
       xlink:href="#linearGradient3593"
       id="radialGradient4774"
       gradientUnits="userSpaceOnUse"
       gradientTransform="matrix(0.22776619,0.2482225,-0.26547903,0.2436006,223.40039,305.95234)"
       cx="536.92163"
       cy="257.29892"
       fx="536.92163"
       fy="257.29892"
       r="201.37689" />
    <linearGradient
       inkscape:collect="always"
       xlink:href="#linearGradient3571"
       id="linearGradient4777"
       gradientUnits="userSpaceOnUse"
       x1="499.9826"
       y1="373.98297"
       x2="600.9422"
       y2="174.81282"
       gradientTransform="matrix(0.39841915,0,0,0.39841915,79.314902,414.13773)" />
    <radialGradient
       inkscape:collect="always"
       xlink:href="#linearGradient3308"
       id="radialGradient4780"
       gradientUnits="userSpaceOnUse"
       gradientTransform="matrix(11.60017,-8.917595e-8,7.23316e-8,9.4090262,-757.86736,-1543.8267)"
       cx="72.080688"
       cy="237.3118"
       fx="72.080688"
       fy="237.3118"
       r="89.823624" />
    <radialGradient
       inkscape:collect="always"
       xlink:href="#linearGradient3605"
       id="radialGradient4782"
       gradientUnits="userSpaceOnUse"
       gradientTransform="translate(3.136538,4.704807)"
       cx="150.5538"
       cy="160.69841"
       fx="150.5538"
       fy="160.69841"
       r="312.59076" />
    <linearGradient
       inkscape:collect="always"
       xlink:href="#linearGradient3160"
       id="linearGradient4784"
       gradientUnits="userSpaceOnUse"
       gradientTransform="matrix(3.4800508,0,0,3.4800508,-164.72229,-124.26474)"
       x1="160.79538"
       y1="229.54926"
       x2="160.79538"
       y2="62.100281" />
    <linearGradient
       inkscape:collect="always"
       xlink:href="#linearGradient3160"
       id="linearGradient4788"
       gradientUnits="userSpaceOnUse"
       gradientTransform="matrix(1.3865189,0,0,1.3865189,16.234224,383.40917)"
       x1="160.79538"
       y1="229.54926"
       x2="160.79538"
       y2="62.100281" />
    <radialGradient
       inkscape:collect="always"
       xlink:href="#linearGradient3605"
       id="radialGradient4791"
       gradientUnits="userSpaceOnUse"
       gradientTransform="matrix(0.39841915,0,0,0.39841915,83.112396,434.79311)"
       cx="150.5538"
       cy="160.69841"
       fx="150.5538"
       fy="160.69841"
       r="312.59076" />
  </defs>
  <sodipodi:namedview
     id="base"
     pagecolor="#ffffff"
     bordercolor="#666666"
     borderopacity="1.0"
     inkscape:pageopacity="0.0"
     inkscape:pageshadow="2"
     inkscape:zoom="1"
     inkscape:cx="50.647719"
     inkscape:cy="115.79931"
     inkscape:document-units="px"
     inkscape:current-layer="layer1"
     showgrid="false"
     fit-margin-top="0.1"
     fit-margin-left="0.1"
     fit-margin-right="0.1"
     fit-margin-bottom="0.1"
     units="in"
     inkscape:window-width="1335"
     inkscape:window-height="977"
     inkscape:window-x="1921"
     inkscape:window-y="57"
     inkscape:window-maximized="0" />
  <metadata
     id="metadata4670">
    <rdf:RDF>
      <cc:Work
         rdf:about="">
        <dc:format>image/svg+xml</dc:format>
        <dc:type
           rdf:resource="http://purl.org/dc/dcmitype/StillImage" />
        <dc:title></dc:title>
      </cc:Work>
    </rdf:RDF>
  </metadata>
  <g
     inkscape:label="Layer 1"
     inkscape:groupmode="layer"
     id="layer1"
     transform="translate(-118.82217,-64.64607)">
    <g
       id="g5644"
       transform="matrix(1.6540755,0,0,1.6540755,-83.604375,-48.516078)">
      <g
         id="g5640">
        <rect
           style="fill:#000000;fill-opacity:1;stroke:none"
           id="rect5638"
           width="1.1364216"
           height="8.3968935"
           x="34.534592"
           y="62.502113"
           transform="translate(117.79168,64.980327)" />
        <path
           style="fill:#cc0000;fill-opacity:1;stroke:#000000;stroke-width:0.5;stroke-linecap:round;stroke-linejoin:round;stroke-miterlimit:4;stroke-opacity:1;stroke-dasharray:none;stroke-dashoffset:0"
           d="m 55.5625,9.0625 -1.21875,1.34375 0,0.96875 -9.65625,8.9375 -6.46875,37.15625 -0.625,1.65625 L 31.5,63.59375 31.8125,64.875 38.21875,61.4375 54.03125,25.28125 68.21875,68.625 73.09375,82.3125 80,98.78125 l -4.15625,0.15625 0.375,5.15625 4.78125,0.375 0.75,2.65625 2.09375,0 0,3.4375 -0.9375,0.375 -0.1875,21.9375 -19.9375,0 0,1.4375 42.96875,0 0,-1.4375 -11.90625,0 -1.28125,-21.25 8.21875,-0.3125 0,-9.90625 -2.5,-0.15625 -0.3125,1.46875 -6.84375,-0.0625 11.25,-27.875 L 103.90625,74.5 105,77.21875 l -0.84375,0.6875 1.15625,4.6875 4.96875,-2.90625 -1.5,-4.5 -1.78125,0.78125 -1.125,-5.75 -3.4375,-8.5625 -1.25,0.28125 0.125,0.6875 -3.15625,2.03125 L 59.5625,13.4375 57.46875,11.0625 56.6875,9.1875 55.5625,9.0625 z m 1.25,2.6875 2.34375,3.90625 L 96.75,65.5625 76.5,78.5625 54.78125,22.71875 56.21875,12.90625 56.8125,11.75 z m -2.78125,1.21875 -1.875,9.1875 -0.09375,0.21875 -5.8125,-1.75 7.78125,-7.65625 z m -8.375,8.5 6.0625,1.84375 -12.59375,31.90625 6.53125,-33.75 z m 55.78125,41.90625 1.25,7.15625 -0.46875,0.15625 -2.75,-4.25 -0.90625,-1.1875 2.875,-1.875 z m -4.25,2.75 1,1.3125 3.0625,3.5625 -1.375,0.46875 -0.625,1.5 -2.5,0.15625 -0.1875,-1.28125 -5.0625,0.5 0.03125,3.1875 -13,2.6875 L 97.1875,66.125 z m -5.65625,10.4375 0.03125,3.46875 3.78125,0.1875 -9.96875,18.34375 -2.53125,0.09375 -4.21875,-14.625 -1.71875,-4.46875 14.625,-3 z"
           transform="translate(117.79168,64.980327)"
           id="path2998"
           inkscape:connector-curvature="0" />
      </g>
      <g
         transform="matrix(0.19626109,0,0,0.19626109,117.21735,59.38894)"
         id="g5572">
        <rect
           style="fill:#000000;fill-opacity:1;fill-rule:nonzero;stroke:#000000;stroke-width:6.9325943;stroke-linecap:butt;stroke-linejoin:miter;stroke-miterlimit:4;stroke-opacity:1;stroke-dasharray:none;stroke-dashoffset:0;marker:none;visibility:visible;display:inline;overflow:visible;enable-background:accumulate"
           id="rect4250"
           width="249.08429"
           height="249.08429"
           x="57.492935"
           y="384.62238"
           ry="41.438908"
           rx="46.412601" />
        <path
           inkscape:connector-curvature="0"
           style="font-size:432.16552734px;font-style:normal;font-variant:normal;font-weight:normal;font-stretch:normal;fill:#ffffff;fill-opacity:1;stroke:none;font-family:Franklin Gothic Demi;-inkscape-font-specification:Franklin Gothic Demi"
           d="m 163.34129,518.20896 -22.86806,7.65071 c -3.08277,-9.07987 -9.61249,-13.61985 -19.58918,-13.61995 -10.64938,10e-5 -15.97404,3.44712 -15.97401,10.34106 -3e-5,2.7465 0.99484,5.07254 2.98462,6.97813 1.98971,1.90574 6.48764,3.55919 13.49383,4.96035 11.71422,2.35413 20.28973,4.73622 25.72657,7.14626 5.43669,2.41018 10.0187,6.29158 13.74605,11.64422 3.72718,5.35274 5.59082,11.33598 5.59091,17.94974 -9e-5,10.36912 -3.99359,19.33698 -11.98051,26.9036 -7.98708,7.56664 -19.82745,11.34995 -35.52115,11.34995 -11.77036,0 -21.789139,-2.67634 -30.056369,-8.02904 -8.26726,-5.35268 -13.71803,-13.29764 -16.35234,-23.8349 l 24.88583,-5.63293 c 2.802429,10.70541 10.593249,16.05809 23.372499,16.05808 6.16535,10e-6 10.76138,-1.19102 13.78809,-3.57313 3.02659,-2.38207 4.53992,-5.22656 4.53998,-8.53349 -6e-5,-3.36292 -1.37327,-5.9692 -4.11961,-7.81886 -2.74647,-1.84958 -8.04311,-3.5871 -15.88994,-5.21257 -14.62886,-3.02661 -25.053989,-7.16023 -31.275429,-12.40088 -6.22147,-5.24054 -9.33219,-12.90526 -9.33219,-22.99417 0,-10.20086 3.71325,-18.8044 11.13978,-25.81064 7.42648,-7.00604 17.501309,-10.5091 30.224509,-10.50922 22.53169,1.2e-4 37.02038,8.996 43.46612,26.98767 l 0,0 z m 90.09805,51.28498 -54.64793,0 c -0.0561,1.51337 -0.0841,2.83052 -0.0841,3.95147 -4e-5,6.05334 1.61138,10.62134 4.83424,13.70402 3.22278,3.08272 7.07616,4.62407 11.56014,4.62406 8.35127,10e-6 13.36766,-4.45589 15.0492,-13.36774 l 22.6999,1.68147 c -6.33363,19.61722 -19.1969,29.42581 -38.58984,29.42581 -8.46347,0 -15.65176,-1.69548 -21.56492,-5.08646 -5.9132,-3.39096 -10.78947,-8.3373 -14.62883,-14.83901 -3.83937,-6.50168 -5.75906,-14.2925 -5.75905,-23.3725 -1e-5,-13.5078 3.85337,-24.40935 11.56014,-32.70469 7.70673,-8.29519 17.61342,-12.44283 29.72007,-12.44291 10.92953,8e-5 20.30374,3.85346 28.12266,11.56015 7.81878,7.70681 11.7282,19.99558 11.72829,36.86632 l 0,0 z m -54.732,-14.54475 30.18247,0 c -0.78475,-11.65817 -5.57695,-17.48727 -14.37661,-17.48734 -9.4163,7e-5 -14.68491,5.82917 -15.80586,17.48734 l 0,0 z"
           id="path4256"
           sodipodi:nodetypes="cccsscssssssccsssscssscccccsssccsssssccccccscc" />
      </g>
    </g>
  </g>
</svg>
